<svg xmlns="http://www.w3.org/2000/svg" viewBox="0 0 183 183"><defs><style>.cls-1{fill:#171717;}.cls-2{font-size:16px;fill:#e0d4c4;font-family:Montserrat-Bold, Montserrat;font-weight:700;}</style></defs><g id="Layer_2" data-name="Layer 2"><g id="Layer_3" data-name="Layer 3"><g id="Circle01"><circle class="cls-1" cx="91.5" cy="91.5" r="91.5"/><text class="cls-2" transform="translate(71.43 24.55) rotate(-11.32)">N</text><text class="cls-2" transform="matrix(1, -0.03, 0.03, 1, 84.14, 22.11)">E</text><text class="cls-2" transform="translate(94.77 21.75) rotate(7.52)">V</text><text class="cls-2" transform="matrix(0.96, 0.29, -0.29, 0.96, 106.41, 23.32)">E</text><text class="cls-2" transform="translate(116.76 26.39) rotate(26.08)">R</text><text class="cls-2" transform="matrix(0.84, 0.54, -0.54, 0.84, 127.37, 31.83)"> </text><text class="cls-2" transform="matrix(0.8, 0.6, -0.6, 0.8, 131.4, 34.45)"> </text><text class="cls-2" transform="translate(135.25 37.21) rotate(42.61)">»</text><text class="cls-2" transform="translate(141.98 43.57) rotate(48.33)"> </text><text class="cls-2" transform="translate(145.19 47.19) rotate(52.29)"> </text><text class="cls-2" transform="matrix(0.51, 0.86, -0.86, 0.51, 148.24, 50.76)">A</text><text class="cls-2" transform="translate(154.49 61.33) rotate(69.21)">P</text><text class="cls-2" transform="translate(158.73 72.28) rotate(79.65)">O</text><text class="cls-2" transform="translate(160.99 85.6) rotate(89.07)">L</text><text class="cls-2" transform="translate(161.31 95.15) rotate(98.46)">O</text><text class="cls-2" transform="matrix(-0.33, 0.94, -0.94, -0.33, 159.28, 108.47)">G</text><text class="cls-2" transform="translate(154.97 120.17) rotate(116.51)">I</text><text class="cls-2" transform="translate(152.69 125.08) rotate(123.22)">Z</text><text class="cls-2" transform="translate(146.77 134.1) rotate(132.05)">E</text><text class="cls-2" transform="translate(139.32 142.09) rotate(138.46)"> </text><text class="cls-2" transform="translate(135.71 145.27) rotate(142.39)"> </text><text class="cls-2" transform="translate(132.02 148.25) rotate(148.16)">»</text><text class="cls-2" transform="translate(124.08 153.04) rotate(153.92)"> </text><text class="cls-2" transform="matrix(-0.93, 0.38, -0.38, -0.93, 119.75, 155.14)"> </text><text class="cls-2" transform="matrix(-0.96, 0.27, -0.27, -0.96, 115.42, 157.06)">F</text><text class="cls-2" transform="matrix(-0.99, 0.11, -0.11, -0.99, 105.69, 159.96)">O</text><text class="cls-2" transform="matrix(-1, -0.07, 0.07, -1, 92.23, 161.32)">R</text><text class="cls-2" transform="translate(80.39 160.23) rotate(-169.02)"> </text><text class="cls-2" transform="translate(75.68 159.31) rotate(-165.04)"> </text><text class="cls-2" transform="translate(71.08 158.19) rotate(-159.23)">»</text><text class="cls-2" transform="translate(62.44 154.78) rotate(-153.42)"> </text><text class="cls-2" transform="translate(58.14 152.61) rotate(-149.45)"> </text><text class="cls-2" transform="translate(53.86 150.76) rotate(-139.93)">W</text><text class="cls-2" transform="matrix(-0.61, -0.8, 0.8, -0.61, 40.06, 138.79)">H</text><text class="cls-2" transform="translate(32.21 128.54) rotate(-116.49)">O</text><text class="cls-2" transform="translate(26.4 116.21) rotate(-108.92)"> </text><text class="cls-2" transform="translate(24.85 111.65) rotate(-104.92)"> </text><text class="cls-2" transform="matrix(-0.16, -0.99, 0.99, -0.16, 23.54, 107.12)">»</text><text class="cls-2" transform="translate(22.18 97.93) rotate(-93.38)"> </text><text class="cls-2" transform="translate(21.89 93.15) rotate(-89.07)"> </text><text class="cls-2" transform="translate(21.79 88.39) rotate(-83.07)">Y</text><text class="cls-2" transform="translate(22.89 78.08) rotate(-73.41)">O</text><text class="cls-2" transform="matrix(0.46, -0.89, 0.89, 0.46, 26.78, 65.15)">U</text><text class="cls-2" transform="translate(32.88 53.96) rotate(-55.59)">’</text><text class="cls-2" transform="translate(35.17 50.25) rotate(-48.93)">R</text><text class="cls-2" transform="matrix(0.77, -0.64, 0.64, 0.77, 42.96, 41.38)">E</text><text class="cls-2" transform="matrix(0.84, -0.55, 0.55, 0.84, 51.59, 34.47)">.</text></g></g></g></svg>