<svg xmlns="http://www.w3.org/2000/svg" viewBox="0 0 183 183"><defs><style>.cls-1{fill:#e0d4c4;}.cls-2{font-size:16px;fill:#171717;font-family:Montserrat-Bold, Montserrat;font-weight:700;}</style></defs><g id="Layer_2" data-name="Layer 2"><g id="Layer_1-2" data-name="Layer 1"><g id="Circle01"><circle class="cls-1" cx="91.5" cy="91.5" r="91.5"/><text class="cls-2" transform="translate(71.62 24.76) rotate(-14.38)">I</text><text class="cls-2" transform="matrix(0.99, -0.12, 0.12, 0.99, 76.79, 23.17)">D</text><text class="cls-2" transform="translate(89.94 21.74) rotate(3.08)">E</text><text class="cls-2" transform="translate(100.71 22.26) rotate(12.55)">A</text><text class="cls-2" transform="translate(112.7 25.02) rotate(21.89)">S</text><text class="cls-2" transform="matrix(0.88, 0.47, -0.47, 0.88, 122.25, 29.03)"> </text><text class="cls-2" transform="translate(126.51 31.32) rotate(32.1)"> </text><text class="cls-2" transform="translate(130.58 33.75) rotate(37.86)">»</text><text class="cls-2" transform="matrix(0.72, 0.69, -0.69, 0.72, 137.83, 39.54)"> </text><text class="cls-2" transform="translate(141.32 42.88) rotate(47.54)"> </text><text class="cls-2" transform="translate(144.65 46.19) rotate(54.54)">A</text><text class="cls-2" transform="matrix(0.43, 0.9, -0.9, 0.43, 151.76, 56.2)">R</text><text class="cls-2" transform="translate(156.81 66.86) rotate(73.77)">E</text><text class="cls-2" transform="translate(159.68 77.38) rotate(80.23)"> </text><text class="cls-2" transform="translate(160.49 82.14) rotate(84.2)"> </text><text class="cls-2" transform="translate(161 86.79) rotate(89.07)">»</text><text class="cls-2" transform="translate(160.96 96.12) rotate(95.6)"> </text><text class="cls-2" transform="translate(160.48 100.92) rotate(99.56)"> </text><text class="cls-2" transform="translate(159.84 105.59) rotate(105.81)">S</text><text class="cls-2" transform="translate(157.15 115.49) rotate(115.42)">H</text><text class="cls-2" transform="translate(151.37 127.14) rotate(123.68)">*</text><text class="cls-2" transform="translate(147.22 133.46) rotate(131.07)">T</text><text class="cls-2" transform="matrix(-0.73, 0.68, -0.68, -0.73, 140.5, 140.95)"> </text><text class="cls-2" transform="translate(136.95 144.23) rotate(141.07)"> </text><text class="cls-2" transform="translate(133.33 147.29) rotate(146.82)">»</text><text class="cls-2" transform="translate(125.51 152.25) rotate(152.57)"> </text><text class="cls-2" transform="matrix(-0.92, 0.4, -0.4, -0.92, 121.22, 154.47)"> </text><text class="cls-2" transform="matrix(-0.97, 0.24, -0.24, -0.97, 117.22, 156.84)">W</text><text class="cls-2" transform="matrix(-1, 0.07, -0.07, -1, 99.25, 160.7)">I</text><text class="cls-2" transform="translate(93.86 161.21) rotate(-177.91)">T</text><text class="cls-2" transform="translate(83.92 160.97) rotate(-168.52)">H</text><text class="cls-2" transform="translate(71.25 158.43) rotate(-157.6)">O</text><text class="cls-2" transform="translate(58.8 153.25) rotate(-146.86)">U</text><text class="cls-2" transform="matrix(-0.76, -0.65, 0.65, -0.76, 48.27, 146.07)"> </text><text class="cls-2" transform="translate(44.6 142.94) rotate(-135.77)"> </text><text class="cls-2" transform="translate(41.14 139.72) rotate(-130.04)">»</text><text class="cls-2" transform="matrix(-0.56, -0.83, 0.83, -0.56, 35.26, 132.53)"> </text><text class="cls-2" transform="matrix(-0.51, -0.86, 0.86, -0.51, 32.55, 128.54)"> </text><text class="cls-2" transform="translate(30.03 124.56) rotate(-113.89)">E</text><text class="cls-2" transform="matrix(-0.25, -0.97, 0.97, -0.25, 25.68, 114.8)">X</text><text class="cls-2" transform="translate(22.84 104.01) rotate(-95.84)">E</text><text class="cls-2" transform="matrix(0.06, -1, 1, 0.06, 21.71, 93.33)">C</text><text class="cls-2" transform="matrix(0.23, -0.97, 0.97, 0.23, 22.33, 81.66)">U</text><text class="cls-2" transform="matrix(0.38, -0.92, 0.92, 0.38, 25.27, 69.58)">T</text><text class="cls-2" transform="translate(29.24 60.31) rotate(-61.18)">I</text><text class="cls-2" transform="translate(31.58 55.48) rotate(-53.4)">O</text><text class="cls-2" transform="translate(39.66 44.66) rotate(-42.61)">N</text><text class="cls-2" transform="matrix(0.81, -0.58, 0.58, 0.81, 49.46, 36.03)">.</text><text class="cls-2" transform="matrix(0.85, -0.53, 0.53, 0.85, 53.1, 33.44)"> </text><text class="cls-2" transform="matrix(0.89, -0.46, 0.46, 0.89, 57.22, 30.91)"> </text><text class="cls-2" transform="matrix(0.92, -0.4, 0.4, 0.92, 61.47, 28.68)"> </text><text class="cls-2" transform="translate(65.9 26.75) rotate(-19.71)"> </text><text class="cls-2" transform="matrix(0.96, -0.27, 0.27, 0.96, 70.43, 25.14)"> </text><text class="cls-2" transform="translate(75.05 23.85) rotate(-11.74)"> </text><text class="cls-2" transform="translate(79.77 22.88) rotate(-7.76)"> </text></g></g></g></svg>