<svg xmlns="http://www.w3.org/2000/svg" viewBox="0 0 183 183"><defs><style>.cls-1{fill:#e0d4c4;}.cls-2{font-size:16px;fill:#171717;font-family:Montserrat-Bold, Montserrat;font-weight:700;}</style></defs><g id="Layer_2" data-name="Layer 2"><g id="Layer_6" data-name="Layer 6"><g id="Circle01"><circle class="cls-1" cx="91.5" cy="91.5" r="91.5"/><text class="cls-2" transform="matrix(0.98, -0.21, 0.21, 0.98, 71.51, 24.65)">F</text><text class="cls-2" transform="matrix(1, -0.06, 0.06, 1, 81.08, 22.43)">A</text><text class="cls-2" transform="translate(93.37 21.79) rotate(5.44)">L</text><text class="cls-2" transform="matrix(0.97, 0.23, -0.23, 0.97, 103.09, 22.72)">L</text><text class="cls-2" transform="translate(112.64 25.16) rotate(19.54)"> </text><text class="cls-2" transform="translate(117.19 26.78) rotate(23.54)"> </text><text class="cls-2" transform="translate(121.55 28.57) rotate(29.31)">»</text><text class="cls-2" transform="matrix(0.82, 0.57, -0.57, 0.82, 129.58, 33.22)"> </text><text class="cls-2" transform="matrix(0.78, 0.63, -0.63, 0.78, 133.53, 36.01)"> </text><text class="cls-2" transform="matrix(0.73, 0.69, -0.69, 0.73, 137.25, 39.02)">I</text><text class="cls-2" transform="matrix(0.63, 0.77, -0.77, 0.63, 141.35, 42.54)">N</text><text class="cls-2" transform="matrix(0.53, 0.85, -0.85, 0.53, 149.39, 52.83)"> </text><text class="cls-2" transform="translate(151.93 56.92) rotate(62.03)"> </text><text class="cls-2" transform="translate(154.24 61.04) rotate(67.82)">»</text><text class="cls-2" transform="translate(157.63 69.69) rotate(73.63)"> </text><text class="cls-2" transform="translate(158.98 74.32) rotate(77.63)"> </text><text class="cls-2" transform="translate(160.11 78.9) rotate(83.64)">L</text><text class="cls-2" transform="translate(161.33 88.37) rotate(92.92)">O</text><text class="cls-2" transform="translate(160.62 101.51) rotate(103.09)">V</text><text class="cls-2" transform="translate(157.93 112.93) rotate(112.31)">E</text><text class="cls-2" transform="translate(153.62 122.96) rotate(118.77)"> </text><text class="cls-2" transform="translate(151.3 127.16) rotate(122.73)"> </text><text class="cls-2" transform="matrix(-0.62, 0.78, -0.78, -0.62, 148.82, 131.21)">»</text><text class="cls-2" transform="translate(142.94 138.41) rotate(134.23)"> </text><text class="cls-2" transform="matrix(-0.75, 0.67, -0.67, -0.75, 139.58, 141.84)"> </text><text class="cls-2" transform="matrix(-0.84, 0.53, -0.53, -0.84, 136.53, 145.35)">W</text><text class="cls-2" transform="translate(120.71 154.72) rotate(157.34)">I</text><text class="cls-2" transform="translate(115.76 156.92) rotate(163.74)">T</text><text class="cls-2" transform="matrix(-0.99, 0.12, -0.12, -0.99, 106.24, 159.82)">H</text><text class="cls-2" transform="translate(93.29 161.11) rotate(-179.07)"> </text><text class="cls-2" transform="translate(88.43 161.05) rotate(-175.67)"> </text><text class="cls-2" transform="translate(83.71 160.8) rotate(-169.92)">»</text><text class="cls-2" transform="translate(74.58 159.04) rotate(-164.1)"> </text><text class="cls-2" transform="translate(69.96 157.72) rotate(-160.11)"> </text><text class="cls-2" transform="translate(65.47 156.23) rotate(-153.99)">T</text><text class="cls-2" transform="matrix(-0.81, -0.58, 0.58, -0.81, 56.49, 151.99)">H</text><text class="cls-2" transform="translate(45.98 144.39) rotate(-134.87)">E</text><text class="cls-2" transform="matrix(-0.62, -0.78, 0.78, -0.62, 38.44, 136.56)"> </text><text class="cls-2" transform="matrix(-0.57, -0.82, 0.82, -0.57, 35.43, 132.76)"> </text><text class="cls-2" transform="translate(32.66 128.92) rotate(-118.77)">»</text><text class="cls-2" transform="matrix(-0.39, -0.92, 0.92, -0.39, 28.3, 120.72)"> </text><text class="cls-2" transform="matrix(-0.33, -0.95, 0.95, -0.33, 26.43, 116.29)"> </text><text class="cls-2" transform="matrix(-0.21, -0.98, 0.98, -0.21, 24.71, 111.91)">P</text><text class="cls-2" transform="translate(22.27 100.59) rotate(-92.61)">R</text><text class="cls-2" transform="translate(21.65 88.82) rotate(-82.33)">O</text><text class="cls-2" transform="translate(23.53 75.45) rotate(-71.9)">C</text><text class="cls-2" transform="translate(27.24 64.27) rotate(-62.57)">E</text><text class="cls-2" transform="translate(32.23 54.69) rotate(-53.92)">S</text><text class="cls-2" transform="translate(38.31 46.37) rotate(-45.49)">S</text><text class="cls-2" transform="translate(45.95 38.87) rotate(-39.19)">.</text></g></g></g></svg>